Coordinates
nRows=227
nColumns=2
inDegrees=yes
endheader
time	ankle_angle_r	
2.69456	  9.353691	
2.72782	  9.361503	
2.76109	  9.367564	
2.79435	  9.371426	
2.82762	  9.372229	
2.86089	  9.367491	
2.89415	  9.359034	
2.92742	  9.353479	
2.96069	  9.352402	
2.99395	  9.352696	
3.02722	  9.355657	
3.06048	  9.363864	
3.09375	  9.371412	
3.12702	  9.367968	
3.16028	  9.352807	
3.19355	  9.336105	
3.22681	  9.325504	
3.26008	  9.317431	
3.29335	  9.302225	
3.32661	  9.277030	
3.35988	  9.251595	
3.39315	  9.236582	
3.42641	  9.231953	
3.45968	  9.233906	
3.49294	  9.242037	
3.52621	  9.253183	
3.55948	  9.259761	
3.59274	  9.257538	
3.62601	  9.249823	
3.65927	  9.242887	
3.69254	  9.236751	
3.72581	  9.226264	
3.75907	  9.214222	
3.79234	  9.211764	
3.8256	  9.221724	
3.85887	  9.236006	
3.89214	  9.250219	
3.9254	  9.262705	
3.95867	  9.266433	
3.99194	  9.258111	
4.0252	  9.242760	
4.05847	  9.227081	
4.09173	  9.215999	
4.125	  9.210608	
4.15827	  9.212247	
4.19153	  9.221805	
4.2248	  9.231220	
4.25806	  9.232799	
4.29133	  9.228587	
4.3246	  9.220729	
4.35786	  9.211792	
4.39113	  9.209313	
4.4244	  9.213623	
4.45766	  9.217042	
4.49093	  9.218349	
4.52419	  9.221232	
4.55746	  9.225614	
4.59073	  9.228904	
4.62399	  9.228976	
4.65726	  9.227680	
4.69052	  9.228690	
4.72379	  9.230078	
4.75706	  9.231739	
4.79032	  9.238179	
4.82359	  9.243555	
4.85685	  9.239204	
4.89012	  9.229569	
4.92339	  9.218938	
4.95665	  9.206386	
4.98992	  9.200256	
5.02319	  9.208454	
5.05645	  9.219776	
5.08972	  9.216256	
5.12298	  9.195260	
5.15625	  9.172019	
5.18952	  9.165317	
5.22278	  9.178567	
5.25605	  9.198435	
5.28931	  9.211340	
5.32258	  9.212958	
5.35585	  9.210396	
5.38911	  9.215558	
5.42238	  9.226534	
5.45565	  9.230575	
5.48891	  9.224696	
5.52218	  9.215358	
5.55544	  9.210808	
5.58871	  9.215944	
5.62198	  9.225997	
5.65524	  9.236757	
5.68851	  9.250643	
5.72177	  9.263588	
5.75504	  9.267010	
5.78831	  9.261804	
5.82157	  9.256624	
5.85484	  9.257150	
5.8881	  9.260691	
5.92137	  9.262647	
5.95464	  9.265603	
5.9879	  9.273947	
6.02117	  9.285235	
6.05444	  9.294034	
6.0877	  9.297709	
6.12097	  9.298489	
6.15423	  9.304545	
6.1875	  9.320332	
6.22077	  9.338426	
6.25403	  9.351221	
6.2873	  9.358566	
6.32056	  9.362003	
6.35383	  9.364438	
6.3871	  9.367596	
6.42036	  9.366865	
6.45363	  9.359732	
6.4869	  9.352533	
6.52016	  9.351400	
6.55343	  9.353503	
6.58669	  9.349442	
6.61996	  9.335557	
6.65323	  9.324189	
6.68649	  9.330593	
6.71976	  9.349776	
6.75302	  9.362606	
6.78629	  9.360265	
6.81956	  9.348432	
6.85282	  9.336553	
6.88609	  9.330000	
6.91935	  9.326148	
6.95262	  9.317256	
6.98589	  9.298005	
7.01915	  9.271690	
7.05242	  9.249311	
7.08569	  9.240045	
7.11895	  9.246106	
7.15222	  9.263740	
7.18548	  9.284210	
7.21875	  9.299608	
7.25202	  9.306364	
7.28528	  9.302971	
7.31855	  9.293827	
7.35181	  9.289250	
7.38508	  9.290197	
7.41835	  9.286961	
7.45161	  9.279186	
7.48488	  9.275917	
7.51815	  9.281840	
7.55141	  9.298895	
7.58468	  9.322874	
7.61794	  9.337088	
7.65121	  9.332397	
7.68448	  9.324234	
7.71774	  9.330728	
7.75101	  9.349619	
7.78427	  9.367219	
7.81754	  9.374530	
7.85081	  9.371156	
7.88407	  9.361753	
7.91734	  9.353531	
7.9506	  9.353702	
7.98387	  9.360352	
8.01714	  9.363663	
8.0504	  9.362147	
8.08367	  9.362947	
8.11694	  9.367163	
8.1502	  9.370880	
8.18347	  9.373738	
8.21673	  9.376573	
8.25	  9.379758	
8.28327	  9.381856	
8.31653	  9.376094	
8.3498	  9.358888	
8.38306	  9.335854	
8.41633	  9.311719	
8.4496	  9.285235	
8.48286	  9.256543	
8.51613	  9.233306	
8.5494	  9.227978	
8.58266	  9.246679	
8.61593	  9.279195	
8.64919	  9.303767	
8.68246	  9.305919	
8.71573	  9.292092	
8.74899	  9.279563	
8.78226	  9.277034	
8.81552	  9.284035	
8.84879	  9.296584	
8.88206	  9.302827	
8.91532	  9.289575	
8.94859	  9.260482	
8.98185	  9.235112	
9.01512	  9.228850	
9.04839	  9.242183	
9.08165	  9.265028	
9.11492	  9.282760	
9.14819	  9.283037	
9.18145	  9.266196	
9.21472	  9.246187	
9.24798	  9.233513	
9.28125	  9.225632	
9.31452	  9.220261	
9.34778	  9.220403	
9.38105	  9.223639	
9.41431	  9.225108	
9.44758	  9.226873	
9.48085	  9.230705	
9.51411	  9.232477	
9.54738	  9.228895	
9.58065	  9.219909	
9.61391	  9.209752	
9.64718	  9.205872	
9.68044	  9.212648	
9.71371	  9.230350	
9.74698	  9.250201	
9.78024	  9.253858	
9.81351	  9.236250	
9.84677	  9.216793	
9.88004	  9.215971	
9.91331	  9.233456	
9.94657	  9.251767	
9.97984	  9.256560	
10.0131	  9.253305	
10.0464	  9.255000	
10.0796	  9.257357	
10.1129	  9.250544	
10.1462	  9.244803	
10.1794	  9.256302	
10.2127	  9.283330	
